:::::: TEAM ICTV PRRESENTS :::::::

 
http://i.imgur.com/cONKsxt.jpg


Murder 3 2013 Hindi DVDRip ESubs Xvid-Team IcTv


Information:


Genre............: Murder Mystery Drama
Year.............: 2013
Cast.............: Randeep Hooda ,Aditi Rao Hydari
Video............: Xvid
Format...........: Avi
Audio............: mp3
Source...........: Team ICTV
IMDB.............: http://www.imdb.com/title/tt2429640/


General
Complete name : Murder 3 (2013) DVDRip - Xvid Mp3 - [1CD] - ESubs - Team IcTv Exclusive.avi
Format : AVI
Format/Info : Audio Video Interleave
File size : 702 MiB
Duration : 1h 58mn
Overall bit rate : 829 Kbps

Video
ID : 0
Format : MPEG-4 Visual
Format profile : Advanced Simple@L5
Format settings, BVOP : 2
Format settings, QPel : Yes
Format settings, GMC : No warppoints
Format settings, Matrix : Default (H.263)
Codec ID : XVID
Codec ID/Hint : XviD
Duration : 1h 58mn
Bit rate : 738 Kbps
Width : 640 pixels
Height : 272 pixels
Display aspect ratio : 2.35:1
Frame rate : 29.970 fps
Color space : YUV
Chroma subsampling : 4:2:0
Bit depth : 8 bits
Scan type : Progressive
Compression mode : Lossy
Bits/(Pixel*Frame) : 0.141
Stream size : 624 MiB (89%)
Writing library : XviD 1.2.1 (UTC 2008-12-04)

Audio
ID : 1
Format : MPEG Audio
Format version : Version 1
Format profile : Layer 3
Mode : Joint stereo
Codec ID : 55
Codec ID/Hint : MP3
Duration : 1h 58mn
Bit rate mode : Constant
Bit rate : 80.0 Kbps
Channel(s) : 2 channels
Sampling rate : 32.0 KHz
Compression mode : Lossy
Stream size : 67.7 MiB (10%)
Alignment : Aligned on interleaves
Interleave, duration : 36 ms (1.08 video frame)


All Credit Goes To Intellect Clever & Team IcTv


Poster:

 
http://i.imgur.com/UdmnfVj.jpg


Screenshots:

 
http://i.imgur.com/n2bOFrh.jpg

 
http://i.imgur.com/erlCZ35.jpg

 
http://i.imgur.com/9KOFQLe.jpg


SEED AND ENJOY!